<svg width="100" height="100" viewBox="0 0 100 100" fill="none" xmlns="http://www.w3.org/2000/svg">
<path d="M41.875 17.75C42.875 16.875 44.375 16.875 45.375 17.75C48.75 21 52 24.5 55 28.25C56.375 26.5 58 24.5 59.625 22.875C60.625 22 62.125 22 63.125 22.875C67.5 27 71.125 32.5 73.75 37.625C76.25 42.75 78 48 78 51.625C78 67.625 65.5 81 50 81C34.25 81 22 67.625 22 51.625C22 46.875 24.125 41 27.625 35.125C31.125 29.25 36 23.125 41.875 17.75ZM50.125 69C53.375 69 56.125 68.125 58.75 66.375C64 62.75 65.375 55.375 62.25 49.625C61.75 48.5 60.25 48.375 59.5 49.375L56.25 53C55.5 54 54 54 53.25 53C51.125 50.375 47.5 45.625 45.375 43C44.625 42 43.125 42 42.25 43C38 48.25 35.875 51.625 35.875 55.375C36 64 42.25 69 50.125 69Z" fill="#292321"/>
</svg>
