<svg width="100" height="100" viewBox="0 0 100 100" fill="none" xmlns="http://www.w3.org/2000/svg">
<path d="M26 21C26 18.875 27.75 17 30 17H34H66H70C72.125 17 74 18.875 74 21C74 23.25 72.125 25 70 25V26.375C70 31.75 67.875 36.875 64.125 40.625L55.625 49L64.125 57.5C67.875 61.25 70 66.375 70 71.625V73C72.125 73 74 74.875 74 77C74 79.25 72.125 81 70 81H66H34H30C27.75 81 26 79.25 26 77C26 74.875 27.75 73 30 73V71.625C30 66.375 32 61.25 35.75 57.5L44.25 49L35.75 40.625C32 36.875 30 31.75 30 26.375V25C27.75 25 26 23.25 26 21ZM38 25V26.375C38 29.625 39.25 32.625 41.5 34.875L50 43.375L58.375 34.875C60.625 32.625 62 29.625 62 26.375V25H38ZM38 73H62V71.625C62 68.5 60.625 65.5 58.375 63.25L50 54.75L41.5 63.25C39.25 65.5 38 68.5 38 71.75V73.125V73Z" fill="#F5F7FA"/>
</svg>
