<svg width="100" height="100" viewBox="0 0 100 100" fill="none" xmlns="http://www.w3.org/2000/svg">
<path d="M46.25 28.625C48 34 46.25 39.5 42.125 40.75C38.125 42.125 33.375 38.875 31.625 33.5C29.875 28.125 31.625 22.625 35.75 21.375C39.75 20 44.5 23.25 46.25 28.625ZM30.5 41.875C32.875 45.875 32.25 50.625 29.25 52.375C26.125 54.125 21.75 52.25 19.375 48.25C17 44.125 17.625 39.5 20.625 37.75C23.75 36 28.125 37.875 30.5 41.875ZM26.625 67.25C33.125 49.5 44.75 45 50 45C55.125 45 66.75 49.5 73.25 67.25C73.75 68.375 74 69.75 74 71V71.25C74 74.5 71.375 77 68.125 77C66.625 77 65.25 76.875 63.875 76.5L52.875 73.75C51 73.25 49 73.25 47 73.75L36 76.5C34.625 76.875 33.25 77 31.75 77C28.5 77 26 74.5 26 71.25V71C26 69.75 26.125 68.375 26.625 67.25ZM70.625 52.375C67.625 50.625 67 45.875 69.375 41.875C71.75 37.875 76.125 36 79.25 37.75C82.25 39.5 82.875 44.125 80.5 48.25C78.125 52.25 73.75 54.125 70.625 52.375ZM56.75 40.75C52.625 39.5 50.875 34 52.625 28.625C54.375 23.25 59.125 20 63.125 21.375C67.25 22.625 69 28.125 67.25 33.5C65.5 38.875 60.75 42.125 56.75 40.75Z" fill="#F5F7FA"/>
</svg>
