<svg width="100" height="100" viewBox="0 0 100 100" fill="none" xmlns="http://www.w3.org/2000/svg">
<path d="M38 21H56C65.875 21 74 29.125 74 39C74 49 65.875 57 56 57H42V61H62C64.125 61 66 62.875 66 65C66 67.25 64.125 69 62 69H42V73C42 75.25 40.125 77 38 77C35.75 77 34 75.25 34 73V69H30C27.75 69 26 67.25 26 65C26 62.875 27.75 61 30 61H34V57H30C27.75 57 26 55.25 26 53C26 50.875 27.75 49 30 49H34V25C34 22.875 35.75 21 38 21ZM56 49C61.5 49 66 44.625 66 39C66 33.5 61.5 29 56 29H42V49H56Z" fill="#F5F7FA"/>
</svg>
