<svg width="100" height="100" viewBox="0 0 100 100" fill="none" xmlns="http://www.w3.org/2000/svg">
<path d="M82 29C82 35.375 74.5 44.75 71.375 48.375C70.875 49 70.25 49.25 69.5 49H58C55.75 49 54 50.875 54 53C54 55.25 55.75 57 58 57H70C76.625 57 82 62.375 82 69C82 75.625 76.625 81 70 81H35.375C36.5 79.875 37.75 78.25 39.125 76.5C39.875 75.375 40.75 74.25 41.5 73H70C72.125 73 74 71.25 74 69C74 66.875 72.125 65 70 65H58C51.375 65 46 59.625 46 53C46 46.375 51.375 41 58 41H62.875C60.25 37.125 58 32.625 58 29C58 22.375 63.375 17 70 17C76.625 17 82 22.375 82 29ZM32.625 78.25C32.125 78.75 31.625 79.25 31.375 79.625L31.125 79.875C30.375 80.375 29.25 80.375 28.625 79.625C25.375 76.125 18 67.375 18 61C18 54.375 23.375 49 30 49C36.625 49 42 54.375 42 61C42 64.75 39.25 69.375 36.5 73.25C35.125 75.125 33.75 76.75 32.625 78.125V78.25ZM34 61C34 58.875 32.125 57 30 57C27.75 57 26 58.875 26 61C26 63.25 27.75 65 30 65C32.125 65 34 63.25 34 61ZM70 33C72.125 33 74 31.25 74 29C74 26.875 72.125 25 70 25C67.75 25 66 26.875 66 29C66 31.25 67.75 33 70 33Z" fill="#292321"/>
</svg>
