<svg width="100" height="100" viewBox="0 0 100 100" fill="none" xmlns="http://www.w3.org/2000/svg">
<path d="M38 17C40.125 17 42 18.875 42 21V25H58V21C58 18.875 59.75 17 62 17C64.125 17 66 18.875 66 21V25H72C75.25 25 78 27.75 78 31V37H22V31C22 27.75 24.625 25 28 25H34V21C34 18.875 35.75 17 38 17ZM22 41H78V75C78 78.375 75.25 81 72 81H28C24.625 81 22 78.375 22 75V41ZM30 51V55C30 56.125 30.875 57 32 57H36C37 57 38 56.125 38 55V51C38 50 37 49 36 49H32C30.875 49 30 50 30 51ZM46 51V55C46 56.125 46.875 57 48 57H52C53 57 54 56.125 54 55V51C54 50 53 49 52 49H48C46.875 49 46 50 46 51ZM64 49C62.875 49 62 50 62 51V55C62 56.125 62.875 57 64 57H68C69 57 70 56.125 70 55V51C70 50 69 49 68 49H64ZM30 67V71C30 72.125 30.875 73 32 73H36C37 73 38 72.125 38 71V67C38 66 37 65 36 65H32C30.875 65 30 66 30 67ZM48 65C46.875 65 46 66 46 67V71C46 72.125 46.875 73 48 73H52C53 73 54 72.125 54 71V67C54 66 53 65 52 65H48ZM62 67V71C62 72.125 62.875 73 64 73H68C69 73 70 72.125 70 71V67C70 66 69 65 68 65H64C62.875 65 62 66 62 67Z" fill="#292321"/>
</svg>
