<svg width="100" height="100" viewBox="0 0 100 100" fill="none" xmlns="http://www.w3.org/2000/svg">
<path d="M22 33C22 27.375 25 22.125 30 19.25C34.875 16.375 41 16.375 46 19.25C50.875 22.125 54 27.375 54 33C54 38.75 50.875 44 46 46.875C41 49.75 34.875 49.75 30 46.875C25 44 22 38.75 22 33ZM10 77.375C10 65 19.875 55 32.25 55H43.625C56 55 66 65 66 77.375C66 79.375 64.25 81 62.25 81H13.625C11.625 81 10 79.375 10 77.375ZM86.125 81H68.875C69.5 79.875 70 78.5 70 77V76C70 68.5 66.5 61.625 61.25 57.125C61.5 57.125 61.75 57 62.125 57H69.75C80.875 57 90 66.125 90 77.25C90 79.375 88.25 81 86.125 81ZM64 49C60.125 49 56.625 47.5 54 45C56.5 41.625 58 37.5 58 33C58 29.75 57.125 26.5 55.625 23.75C58 22.125 60.875 21 64 21C71.625 21 78 27.375 78 35C78 42.75 71.625 49 64 49Z" fill="#292321"/>
<path d="M55.5 35C55.5 30.5817 59.0817 27 63.5 27C67.9183 27 71.5 30.5817 71.5 35C71.5 39.4183 67.9183 43 63.5 43C59.0817 43 55.5 39.4183 55.5 35Z" fill="#F5F7FA"/>
<path d="M68.9491 62.0302C66.3434 61.9623 61.5 62.0302 61.5 62.0302C61.5 62.0302 68.5767 65.8138 68.5767 73.6716C68.5767 75.127 67.4593 75.9999 67.4593 75.9999H80.1228C82.3575 75.9999 83.3295 75.0355 83.4749 73.6716C83.8474 70.1793 80.1228 62.3213 68.9491 62.0302Z" fill="#F5F7FA"/>
</svg>
