<svg width="29" height="29" viewBox="0 0 29 29" fill="none" xmlns="http://www.w3.org/2000/svg">
<path d="M8.96875 1.53125L11.1562 6.78125C11.5391 7.65625 11.3203 8.69531 10.5547 9.29688L7.875 11.5391C9.67969 15.3672 12.7969 18.4844 16.625 20.2891L18.8672 17.6094C19.4688 16.8438 20.5078 16.625 21.3828 17.0078L26.6328 19.1953C27.6719 19.5781 28.1641 20.7266 27.8906 21.7656L26.5781 26.5781C26.3047 27.5078 25.4844 28.1641 24.5 28.1641C10.9375 28.1641 0 17.2266 0 3.66406C0 2.67969 0.65625 1.85938 1.58594 1.58594L6.39844 0.273438C7.4375 0 8.58594 0.492188 8.96875 1.53125Z" fill="#F5F7FA"/>
</svg>
