<svg width="30" height="30" viewBox="0 0 30 30" fill="none" xmlns="http://www.w3.org/2000/svg">
<path d="M14.5312 0C22.5 0 29.0625 6.5625 29.0625 14.5312C29.0625 22.5586 22.5 29.0625 14.5312 29.0625C6.50391 29.0625 0 22.5586 0 14.5312C0 6.5625 6.50391 0 14.5312 0ZM21.2109 9.90234C21.2695 9.72656 21.2695 9.55078 21.2109 9.31641C21.2109 9.19922 21.0938 9.02344 21.0352 8.96484C20.8594 8.78906 20.5664 8.78906 20.4492 8.78906C19.9219 8.78906 19.043 9.08203 15 10.7812C13.5938 11.3672 10.7812 12.5391 6.5625 14.4141C5.85938 14.707 5.50781 14.9414 5.44922 15.2344C5.39062 15.7031 6.15234 15.8789 7.03125 16.1719C7.79297 16.4062 8.78906 16.6992 9.31641 16.6992C9.78516 16.6992 10.3125 16.5234 10.8984 16.1133C14.8242 13.418 16.875 12.0703 16.9922 12.0703C17.1094 12.0703 17.2266 12.0117 17.2852 12.0703C17.4023 12.1875 17.4023 12.3047 17.3438 12.3633C17.2852 12.6562 13.5938 16.0547 13.3594 16.2891C12.5391 17.1094 11.6016 17.6367 13.0664 18.5742C14.2969 19.3945 15 19.9219 16.2891 20.7422C17.1094 21.2695 17.7539 21.9141 18.5742 21.8555C18.9844 21.7969 19.3945 21.4453 19.5703 20.332C20.0977 17.8125 21.0352 12.1875 21.2109 9.90234Z" fill="#F5F7FA"/>
</svg>
