<svg width="27" height="27" viewBox="0 0 27 27" fill="none" xmlns="http://www.w3.org/2000/svg">
<path d="M1.81641 1.875C3.63281 0 6.62109 0 12.5977 0H13.5938C19.5703 0 22.5586 0 24.375 1.875C26.25 3.69141 26.25 6.67969 26.25 12.6562V13.6523C26.25 19.6289 26.25 22.6172 24.375 24.4336C22.5586 26.25 19.5703 26.25 13.5938 26.25H12.5977C6.62109 26.25 3.63281 26.25 1.81641 24.4336C0 22.6172 0 19.6289 0 13.6523V12.6562C0 6.67969 0 3.69141 1.81641 1.875ZM4.39453 8.02734C4.57031 14.8242 7.96875 18.9258 13.9453 18.9258H14.2969V15.0586C15.3516 15.1758 16.3477 15.5859 17.1094 16.2891C17.9297 16.9922 18.5156 17.9297 18.8086 18.9258H21.9141C21.6211 17.7539 21.0352 16.6406 20.2734 15.7031C19.4531 14.7656 18.5156 14.0039 17.4023 13.4766C18.3984 12.8906 19.2188 12.0703 19.9219 11.1328C20.5664 10.1953 21.0352 9.14062 21.2695 8.02734H18.457C17.8125 10.1953 15.9961 12.1289 14.2969 12.3047V8.02734H11.4844V15.5859C9.72656 15.1172 7.5 13.0078 7.38281 8.02734H4.39453Z" fill="#F5F7FA"/>
</svg>
